<?xml version="1.0" standalone="no"?>
<!DOCTYPE svg PUBLIC "-//W3C//DTD SVG 20010904//EN"
 "http://www.w3.org/TR/2001/REC-SVG-20010904/DTD/svg10.dtd">
<svg version="1.0" xmlns="http://www.w3.org/2000/svg"
 width="32.000000pt" height="32.000000pt" viewBox="0 0 32.000000 32.000000"
 preserveAspectRatio="xMidYMid meet">

<g transform="translate(0.000000,32.000000) scale(0.100000,-0.100000)"
fill="#000000" stroke="none">
<path d="M50 204 c0 -56 13 -64 108 -64 55 0 92 4 100 12 18 18 16 78 -3 78
-8 0 -15 -7 -15 -16 0 -13 -13 -15 -85 -12 -47 2 -85 0 -85 -4 0 -5 40 -8 89
-8 77 0 90 2 94 18 4 13 5 11 6 -5 1 -22 -2 -23 -100 -23 l-101 0 4 25 c3 14
1 25 -3 25 -5 0 -9 -12 -9 -26z"/>
<path d="M302 108 c-2 -44 -4 -48 -28 -48 -21 0 -24 4 -19 20 6 19 2 20 -95
20 -97 0 -101 -1 -95 -20 5 -16 2 -20 -19 -20 -17 0 -26 6 -29 23 -5 19 -5 19
-4 -3 2 -20 8 -26 35 -28 27 -3 32 0 32 17 0 19 6 21 80 21 l80 0 0 -31 0 -30
-84 3 c-46 2 -82 0 -79 -4 2 -5 40 -8 84 -8 62 0 81 3 85 15 4 8 17 15 30 15
30 0 37 15 31 66 -3 37 -4 37 -5 -8z"/>
</g>
</svg>
